<svg width="27" height="20" viewBox="0 0 27 20" fill="none" xmlns="http://www.w3.org/2000/svg">
<path d="M21.4412 18.913C18.8603 18.6957 15.7227 17.1739 11.1176 17.1739C6.51257 17.1739 2.97794 18.913 0 18.913C0.992647 13.0435 8.13971 2.82609 12.1103 0C16.0809 2.3913 21.4412 13.1501 21.4412 18.913Z" fill="#B8D432"/>
<path d="M0.396973 8.26099L1.19109 7.60882C1.19109 7.60882 1.54159 7.39849 1.78668 7.39142C2.2386 7.3784 2.77933 8.0436 2.77933 8.0436L3.37491 8.91316L4.96315 11.9566L5.55874 13.261L6.35285 13.6958C6.35285 13.6958 6.82739 13.9051 7.14697 13.9132C7.63719 13.9255 8.33815 13.4784 8.33815 13.4784L10.3234 12.3914L15.0881 8.0436H17.4705L16.8749 8.69577C16.8749 8.69577 14.742 11.2991 13.1029 12.6088C12.2863 13.2613 10.919 14.1306 10.919 14.1306C10.919 14.1306 10.0859 14.567 9.52932 14.7827C8.99724 14.9889 8.13962 15.2175 8.13962 15.2175C8.13962 15.2175 7.40429 15.319 6.94844 15.2175C6.5393 15.1264 5.9558 14.7827 5.9558 14.7827C5.9558 14.7827 5.1776 14.0391 4.76462 13.4784C4.41365 13.0018 3.9705 12.174 3.9705 12.174L2.38227 8.69577C2.38227 8.69577 2.19324 8.33692 1.98521 8.26099C1.8381 8.2073 1.58815 8.19005 1.58815 8.19005H1.19109L0.396973 8.26099Z" fill="#00AEEF"/>
<path d="M0.396973 8.26086L1.38962 8.69547C1.38962 8.69547 1.89961 9.05872 2.18374 9.34739C2.97317 10.1494 3.57344 11.955 3.57344 11.955L4.76462 14.1281C4.76462 14.1281 5.24457 14.6623 5.55874 14.9973C6.38435 15.8776 6.65168 16.7631 7.74256 17.1703C8.18892 17.337 8.93374 17.3876 8.93374 17.3876C8.93374 17.3876 9.5333 17.5588 9.92638 17.6049C10.3889 17.6592 11.1176 17.6049 11.1176 17.6049C11.1176 17.6049 11.7245 17.3452 12.1102 17.1703C14.3525 16.1537 15.61 15.5346 17.669 14.1281C20.3809 12.2755 24.022 8.47817 24.022 8.47817H26.9999L19.8529 15.4319C19.8529 15.4319 17.3316 17.5727 15.4852 18.4742C13.647 19.3716 12.5338 20.064 10.522 19.9953C9.89721 19.9739 8.93374 19.778 8.93374 19.778C8.93374 19.778 7.80315 19.4898 7.14697 19.1261C5.92327 18.4478 5.47766 17.6403 4.56609 16.5184C3.79321 15.5673 2.77933 13.9108 2.77933 13.9108L1.38962 9.78199L0.794031 9.13008L0.396973 8.26086Z" fill="#00AEEF"/>
<path d="M10.3235 15.6522C10.3235 15.6522 11.6743 14.8952 12.5073 14.3478C13.466 13.7177 14.8896 12.6087 14.8896 12.6087L19.4558 8.26086H22.0367L19.8529 10.4348C19.8529 10.4348 18.2397 12.1381 17.0735 13.0435C15.6298 14.1642 14.7189 14.6451 13.1029 15.4348C12.3403 15.8074 11.1176 16.3043 11.1176 16.3043H9.33081L10.3235 15.6522Z" fill="#00AEEF"/>
</svg>
