<?xml version="1.0" encoding="utf-8"?><svg viewBox="0 0 80 80" xmlns="http://www.w3.org/2000/svg" xmlns:xlink="http://www.w3.org/1999/xlink"><style>:root>svg{display:none}:root>svg:target{display:block}</style><svg viewBox="0 0 37 41" id="academic" xmlns="http://www.w3.org/2000/svg"><path fill-rule="evenodd" clip-rule="evenodd" d="M-.015 16.347l18.2-10.065L36.72 16.953 18.156 27.08-.015 16.347zm4.03.057l14.18 8.376 14.435-7.874-14.465-8.328-14.15 7.826z"/><path fill-rule="evenodd" clip-rule="evenodd" d="M9.175 35.93V20.858l8.993-5.29 1.014 1.724-8.007 4.71V35.93h-2z"/><path fill-rule="evenodd" clip-rule="evenodd" d="M7 35h6v6H7v-6zm2 2v2h2v-2H9zM31.429 27.587l-.754-.657.754.657-.003.004-.007.007-.023.026-.087.097a33.836 33.836 0 01-1.421 1.482c-.88.863-2.08 1.938-3.212 2.593-2.581 1.491-4.448 2.134-7.5 2.134-3.074 0-4.89-.743-7.47-2.117-1.211-.645-2.533-1.71-3.517-2.572A38.977 38.977 0 016.5 27.67l-.026-.026-.007-.007-.003-.003.71-.703-.71.703-.29-.292v-7.385h2v6.555l.163.155c.288.276.695.656 1.17 1.07.963.845 2.142 1.78 3.138 2.311 2.438 1.298 3.917 1.883 6.53 1.883 2.633 0 4.158-.512 6.5-1.866.903-.522 1.953-1.447 2.814-2.29a31.926 31.926 0 001.186-1.227V19.43h2v7.875l-.246.282z"/></svg><svg viewBox="0 0 11 18" id="arrow" xmlns="http://www.w3.org/2000/svg"><path fill-rule="evenodd" clip-rule="evenodd" d="M9.316.77l1.368 1.46L3.462 9l7.222 6.77-1.368 1.46L.538 9 9.316.77z"/></svg><svg viewBox="0 0 19 20" fill="none" id="check" xmlns="http://www.w3.org/2000/svg"><rect x="1" y="6" width="14" height="13" rx="1" stroke="url(#ca)" stroke-width="2"/><path fill-rule="evenodd" clip-rule="evenodd" d="M18.689 7.228L7.827 17.155 2.168 8.988l1.664-1.067 4.34 6.264 9.14-8.352 1.377 1.395z" fill="url(#cb)"/><linearGradient id="ca" x1="4.211" y1="5.429" x2="13.026" y2="8.56" gradientUnits="userSpaceOnUse"><stop stop-color="#FFC341"/><stop offset=".964" stop-color="#FFD701"/></linearGradient><linearGradient id="cb" x1="14.685" y1="3.558" x2="5.017" y2="14.722" gradientUnits="userSpaceOnUse"><stop stop-color="#FFC341"/><stop offset="1" stop-color="#FFD701"/></linearGradient></svg><svg viewBox="0 0 19 20" fill="none" id="checkbox" xmlns="http://www.w3.org/2000/svg"><rect x="1" y="6" width="14" height="13" rx="1" stroke="url(#da)" stroke-width="2"/><linearGradient id="da" x1="4.211" y1="5.429" x2="13.026" y2="8.56" gradientUnits="userSpaceOnUse"><stop stop-color="#FFC341"/><stop offset=".964" stop-color="#FFD701"/></linearGradient></svg><svg viewBox="0 0 18 17" id="close" xmlns="http://www.w3.org/2000/svg"><path fill-rule="evenodd" clip-rule="evenodd" d="M7.485 8.5L0 1.507 1.418 0 9 7.084 16.582 0 18 1.507 10.515 8.5 18 15.493 16.582 17 9 9.916 1.418 17 0 15.493 7.485 8.5z" fill="url(#ea)"/><linearGradient id="ea" x1="4.737" y1=".486" x2="14.67" y2="3.988" gradientUnits="userSpaceOnUse"><stop stop-color="#FFC341"/><stop offset=".964" stop-color="#FFD701"/></linearGradient></svg><svg viewBox="0 0 24 24" id="facebook" xmlns="http://www.w3.org/2000/svg"><path d="M15.538 5.187H17.4V1.943c-.321-.044-1.426-.143-2.713-.143-2.685 0-4.524 1.689-4.524 4.793V9.45H7.2v3.626h2.963V22.2h3.633v-9.123h2.843l.45-3.626h-3.294V6.953c0-1.049.283-1.766 1.743-1.766z"/></svg><svg viewBox="0 0 28 37" id="general" xmlns="http://www.w3.org/2000/svg"><path fill-rule="evenodd" clip-rule="evenodd" d="M14 .837L27.774 27.25H.226L14 .837zM3.525 25.25h20.95L14 5.163 3.525 25.25z"/><path fill-rule="evenodd" clip-rule="evenodd" d="M14 36.108L.2 10.5h27.6L14 36.108zM24.45 12.5H3.55L14 31.892 24.45 12.5z"/></svg><svg viewBox="0 0 20 16" id="gps" xmlns="http://www.w3.org/2000/svg"><path d="M.795 7.5L16.545 0 8.672 14l-.985-6-6.89-.5z" fill="#66D3FD"/></svg><svg viewBox="0 0 24 24" id="instagram" xmlns="http://www.w3.org/2000/svg"><path d="M12 8.4A3.604 3.604 0 008.4 12c0 1.985 1.615 3.6 3.6 3.6s3.6-1.615 3.6-3.6-1.615-3.6-3.6-3.6z"/><path fill-rule="evenodd" clip-rule="evenodd" d="M2.4 17.61V6.39A3.99 3.99 0 016.39 2.4h11.22a3.99 3.99 0 013.99 3.99v11.22a3.99 3.99 0 01-3.99 3.99H6.39a3.99 3.99 0 01-3.99-3.99zm4.16-7.644a5.823 5.823 0 007.474 7.474 5.508 5.508 0 003.406-3.406A5.823 5.823 0 009.966 6.56 5.508 5.508 0 006.56 9.966zM18 6.6a1.2 1.2 0 100-2.4 1.2 1.2 0 000 2.4z"/></svg><svg viewBox="0 0 12 18" id="marker" xmlns="http://www.w3.org/2000/svg"><path d="M12 6c0 3.314-4 11-6 12-2.24-1.205-6-8.686-6-12a6 6 0 1112 0zM3.76 6a2.24 2.24 0 104.48 0 2.24 2.24 0 00-4.48 0z" fill="#C4C4C4"/></svg><svg fill="none" viewBox="0 0 71 64" id="ok" xmlns="http://www.w3.org/2000/svg"><rect x="3" y="3" width="58" height="58" rx="29" stroke="url(#kpaint0_linear)" stroke-width="6"/><path d="M18 27.88L32.197 43 66 7" stroke="url(#kpaint1_linear)" stroke-width="9" stroke-linecap="round" stroke-linejoin="round"/><defs><linearGradient id="kpaint0_linear" x1="16.842" y1="1.829" x2="52.588" y2="13.732" gradientUnits="userSpaceOnUse"><stop stop-color="#FFC341"/><stop offset=".964" stop-color="#FFD701"/></linearGradient><linearGradient id="kpaint1_linear" x1="30.632" y1="8.029" x2="55.51" y2="19.074" gradientUnits="userSpaceOnUse"><stop stop-color="#FFC341"/><stop offset=".964" stop-color="#FFD701"/></linearGradient></defs></svg><svg viewBox="0 0 80 80" id="play-button" xmlns="http://www.w3.org/2000/svg"><circle opacity=".32" cx="40" cy="40" r="40" fill="#fff"/><circle cx="40" cy="40" r="26.667" fill="#fff"/><path d="M48.333 39.583l-12.5 7.917V31.667l12.5 7.916z" fill="#1FC0FC"/></svg><svg viewBox="0 0 21 25" id="religious" xmlns="http://www.w3.org/2000/svg"><path fill-rule="evenodd" clip-rule="evenodd" d="M15 24.75H7v-1.5h8v1.5z"/><path fill-rule="evenodd" clip-rule="evenodd" d="M10 24V0h1.5v24H10z"/><path fill-rule="evenodd" clip-rule="evenodd" d="M14.75 0v10.245a4.067 4.067 0 01-7.09 2.72l-.267-.296A4.455 4.455 0 016.25 9.69V0h1.5v9.69c0 .73.27 1.434.758 1.976l.267.296a2.567 2.567 0 004.475-1.717V0h1.5z"/><path fill-rule="evenodd" clip-rule="evenodd" d="M17.75 0v10.516A6.984 6.984 0 016.693 16.19l-.3-.216A7.54 7.54 0 013.25 9.85V0h1.5v9.85a6.04 6.04 0 002.517 4.906l.3.215a5.484 5.484 0 008.683-4.455V0h1.5z"/><path fill-rule="evenodd" clip-rule="evenodd" d="M20.75 0v10.622A9.919 9.919 0 015.9 19.228l-.318-.182A10.606 10.606 0 01.25 9.844V0h1.5v9.844a9.106 9.106 0 004.578 7.9l.317.182a8.419 8.419 0 0012.605-7.304V0h1.5z"/></svg><svg viewBox="0 0 24 24" id="telegram" xmlns="http://www.w3.org/2000/svg"><path d="M9.633 14.863l-.364 5.026c.52 0 .746-.22 1.016-.483l2.441-2.291 5.059 3.637c.927.508 1.581.24 1.831-.838l3.32-15.275h.001c.295-1.347-.495-1.874-1.4-1.543L2.022 10.432c-1.332.507-1.311 1.236-.226 1.566l4.99 1.524 11.59-7.12c.545-.354 1.04-.158.633.197l-9.375 8.264z"/></svg><svg viewBox="0 0 32 25" id="traineeship" xmlns="http://www.w3.org/2000/svg"><path fill-rule="evenodd" clip-rule="evenodd" d="M30 6H2v17h28V6zM2 4a2 2 0 00-2 2v17a2 2 0 002 2h28a2 2 0 002-2V6a2 2 0 00-2-2H2z"/><path fill-rule="evenodd" clip-rule="evenodd" d="M11 3v1.5H9V3a3 3 0 013-3h8a3 3 0 013 3v1h-2V3a1 1 0 00-1-1h-8a1 1 0 00-1 1zM1.381 7.575L1 8.5l-.381.925.013.005.037.015.14.057.52.21c.443.176 1.06.418 1.768.685 1.405.531 3.191 1.17 4.638 1.567.45.124.877.245 1.286.361 2.327.662 4.134 1.175 6.979 1.175 2.845 0 4.652-.513 6.979-1.175.41-.116.835-.237 1.286-.36 1.447-.398 3.233-1.037 4.638-1.568a106.43 106.43 0 002.287-.895l.14-.057.038-.015.012-.005h.001L31 8.5l-.381-.925-.011.005-.035.014-.135.055a104.657 104.657 0 01-2.241.877c-1.395.527-3.11 1.139-4.462 1.51-.477.13-.92.256-1.336.374-2.309.654-3.848 1.09-6.399 1.09-2.55 0-4.09-.436-6.399-1.09-.417-.118-.859-.243-1.336-.374-1.353-.371-3.067-.982-4.461-1.51a104.657 104.657 0 01-2.242-.877l-.135-.055-.035-.014-.01-.005z"/><path fill-rule="evenodd" clip-rule="evenodd" d="M19 13v2.5a1.5 1.5 0 01-1.5 1.5H15a1.5 1.5 0 01-1.5-1.5V13h1v2.5a.5.5 0 00.5.5h2.5a.5.5 0 00.5-.5V13h1z"/></svg><svg viewBox="0 0 24 24" id="twitter" xmlns="http://www.w3.org/2000/svg"><path d="M23.077 5.13a9.47 9.47 0 01-2.617.718 4.516 4.516 0 001.998-2.51 9.076 9.076 0 01-2.88 1.1 4.54 4.54 0 00-7.856 3.106c0 .359.03.705.105 1.035C8.05 8.394 4.71 6.585 2.466 3.828a4.573 4.573 0 00-.622 2.296c0 1.573.81 2.967 2.017 3.774a4.485 4.485 0 01-2.052-.56v.05a4.563 4.563 0 003.639 4.463c-.37.101-.773.15-1.19.15-.291 0-.585-.017-.86-.078.588 1.799 2.258 3.121 4.243 3.164a9.125 9.125 0 01-5.63 1.937c-.373 0-.73-.017-1.088-.062A12.787 12.787 0 007.89 21c8.358 0 12.927-6.923 12.927-12.924 0-.2-.007-.395-.017-.587a9.061 9.061 0 002.277-2.358z"/></svg><svg viewBox="0 0 31 29" id="volunteering" xmlns="http://www.w3.org/2000/svg"><path fill-rule="evenodd" clip-rule="evenodd" d="M4.5 15.514h-3v11h3v-11zm-4.5-1.5v14h6v-14H0zM20.387 1.964c-.328-.18-.588-.234-.784-.207-.495.068-.855.234-1.141.472-.294.244-.55.598-.781 1.1-.325.702-.226 1.18-.027 2.142l.081.396c.13.644.504 1.314 1.054 1.976.546.658 1.23 1.269 1.913 1.795a19.837 19.837 0 002.302 1.523 19.488 19.488 0 002.33-1.519c.688-.525 1.372-1.134 1.912-1.79.544-.66.905-1.325 1.015-1.966l.04-.225c.147-.847.218-1.25-.01-1.9C27.846 2.48 27.08 1.764 26 1.764c-.178 0-.412.075-.697.265-.28.187-.56.45-.816.735a8.154 8.154 0 00-.787 1.044l-.043.068-.01.016-.001.003-.605 1.024-.663-.986-.003-.004-.012-.018a8.514 8.514 0 00-.266-.357 8.847 8.847 0 00-.748-.841c-.307-.3-.638-.57-.962-.749zm2.579.285a9.783 9.783 0 00-.567-.607c-.36-.353-.8-.723-1.289-.992-.483-.266-1.077-.467-1.713-.38-.743.104-1.371.37-1.895.806-.515.429-.89.99-1.183 1.624-.544 1.177-.335 2.148-.133 3.088.027.125.054.249.079.373.196.98.733 1.873 1.37 2.64.64.772 1.415 1.458 2.15 2.025a21.365 21.365 0 002.802 1.818l.05.026.014.008.005.002.344-.666-.344.666.34.175.341-.171-.337-.67.337.67.002-.001.004-.002.014-.007.05-.027a19.291 19.291 0 00.833-.467 20.97 20.97 0 002.004-1.346c.742-.566 1.522-1.253 2.16-2.028.634-.77 1.164-1.672 1.335-2.665l.045-.252c.147-.82.285-1.59-.076-2.622C29.15 1.667 27.971.264 26 .264c-.584 0-1.107.237-1.527.516-.425.282-.8.644-1.104.984-.148.165-.283.33-.403.485z"/><path fill-rule="evenodd" clip-rule="evenodd" d="M30.771 22.573l-3.376 2.814-.102.043-.029.012-.08.034a64.375 64.375 0 01-1.31.532c-.804.316-1.828.7-2.659.95-.896.269-2.048.524-2.962.71a69.433 69.433 0 01-1.498.288l-.093.017-.033.005-.129-.739.017.75h-.014l-.039.001a30.958 30.958 0 01-.682.005 51.98 51.98 0 01-1.806-.032c-1.424-.05-3.231-.177-4.64-.492-1.397-.312-3.075-.96-4.375-1.514a52.167 52.167 0 01-2.247-1.022l-.034-.017-.012-.006h-.001L5 24.24l.333-.672h.002l.008.004.03.015.124.06a50.362 50.362 0 002.052.93c1.285.548 2.858 1.15 4.115 1.43 1.266.284 2.958.407 4.366.457a50.33 50.33 0 002.27.029l.127-.002.063-.011.334-.061c.284-.053.68-.129 1.13-.22.905-.185 2.002-.43 2.83-.678.768-.23 1.744-.595 2.54-.91a66.936 66.936 0 001.28-.518l.002-.001 2.598-2.165a3.25 3.25 0 00-.023-.113c-.067-.306-.158-.49-.211-.544-.054-.054-.238-.144-.545-.212a3.636 3.636 0 00-.376-.061l-4.467.992H14.5v-1.5h5.965c.062-.203.127-.448.172-.696.057-.31.072-.575.044-.76a.464.464 0 00-.035-.132c-.94-.463-4.03-1.497-6.761-1.92-1.662-.258-3.852-.261-5.66-.194a62.981 62.981 0 00-3.093.193l-.045.005h-.014L5 16.24l-.073-.747.018-.002.049-.004a53.738 53.738 0 01.869-.071c.58-.043 1.388-.094 2.307-.128 1.824-.068 4.134-.07 5.945.21 2.868.446 6.137 1.529 7.22 2.07.557.28.763.811.828 1.237.066.425.018.88-.05 1.256a7.037 7.037 0 01-.093.428h1.398l4.522-1.004.105.006-.045.748.045-.748h.007l.014.001a3.226 3.226 0 01.196.02c.124.014.295.04.485.081.335.074.9.233 1.283.616.383.383.543.949.616 1.283a5.099 5.099 0 01.101.681l.001.014v.007L30 22.24l.749-.045.022.378zm-10.134-3.685l.006.008c-.005-.004-.006-.007-.006-.008zM18.5 27.24l.017.75h.056l.056-.01-.129-.74z"/></svg><svg viewBox="0 0 24 24" id="whatsapp" xmlns="http://www.w3.org/2000/svg"><path d="M12.002 2h-.005C6.485 2 2 6.485 2 12c0 2.188.705 4.215 1.904 5.861l-1.246 3.715L6.5 20.347A9.913 9.913 0 0012.002 22C17.517 22 22 17.514 22 12S17.516 2 12.002 2zm5.82 14.121c-.242.681-1.2 1.247-1.963 1.412-.523.11-1.205.2-3.503-.753-2.938-1.218-4.831-4.204-4.978-4.398-.142-.193-1.188-1.58-1.188-3.016 0-1.435.729-2.133 1.022-2.433.242-.247.64-.36 1.023-.36.124 0 .235.007.335.012.294.013.441.03.635.494.241.581.829 2.016.899 2.163.071.148.142.348.042.542-.094.2-.176.288-.324.458-.147.17-.287.3-.434.483-.136.159-.288.329-.118.623.17.287.758 1.246 1.623 2.016 1.116.993 2.02 1.311 2.345 1.446.24.1.528.076.705-.111.223-.242.5-.642.78-1.035.2-.283.453-.318.718-.218.27.094 1.699.8 1.993.947.293.147.487.217.558.34.07.124.07.706-.17 1.388z"/></svg></svg>